<svg width="28" height="26" viewBox="0 0 28 26" fill="none" xmlns="http://www.w3.org/2000/svg">
<path d="M26.8427 12.5116L14.3889 0.278606C14.2992 0.190288 14.1927 0.120221 14.0754 0.0724143C13.9582 0.0246076 13.8325 0 13.7056 0C13.5786 0 13.4529 0.0246076 13.3357 0.0724143C13.2184 0.120221 13.1119 0.190288 13.0223 0.278606L0.56842 12.5116C0.205599 12.8682 0 13.3527 0 13.8579C0 14.907 0.867747 15.76 1.93505 15.76H3.24725V24.4889C3.24725 25.015 3.67961 25.44 4.21477 25.44H11.7705V18.7826H15.1569V25.44H23.1964C23.7315 25.44 24.1639 25.015 24.1639 24.4889V15.76H25.4761C25.9901 15.76 26.4829 15.5609 26.8457 15.2013C27.5986 14.4583 27.5986 13.2546 26.8427 12.5116Z" fill="white"/>
</svg>
